# xmcd
#
# Track frame offsets:
# 180
# 18605
# 34799
# 47468
# 62636
# 74285
# 84290
# 101110
# 113066
# 126310
# 141167
# 153970
# 169771
# 185044
# 199389
# 213897
#
# Disc length: 3028 seconds
#
#
# Revision: 0
# Processed by: cddbd v1.5.1PL2 Copyright (c) Steve Scherf et al.
# Submitted via: FreeRIP 2.944 
#
DISCID=e20bd210
DTITLE=Frank Sinatra - The Music Of Frank Sinatra
DYEAR=1994
DGENRE=Blues
TTITLE0=My Way
TTITLE1=Strangers In The Night
TTITLE2=Love And Marriage
TTITLE3=New York New York
TTITLE4=A Fine Romance
TTITLE5=Chicago
TTITLE6=I've Got You Under My Skin
TTITLE7=Somethin' Stupid
TTITLE8=I'm Getting Sentimental Over You
TTITLE9=You Make Me Feel So Young
TTITLE10=Fly Me To The Moon (In Other Words)
TTITLE11=Night And Day
TTITLE12=L.A Is My Lady
TTITLE13=Speak Softly Love
TTITLE14=Witchcraft
TTITLE15=The World We Knew (Over And Over)
EXTD=16 Instrumental Hits
EXTT0=
EXTT1=
EXTT2=
EXTT3=
EXTT4=
EXTT5=
EXTT6=
EXTT7=
EXTT8=
EXTT9=
EXTT10=
EXTT11=
EXTT12=
EXTT13=
EXTT14=
EXTT15=
PLAYORDER=
